<?xml version="1.0" encoding="utf-8"?>
<!-- Generator: Adobe Illustrator 25.3.1, SVG Export Plug-In . SVG Version: 6.00 Build 0)  -->
<svg version="1.1" id="Layer_1" xmlns="http://www.w3.org/2000/svg" xmlns:xlink="http://www.w3.org/1999/xlink" x="0px" y="0px"
	 viewBox="0 0 2048 2048" style="enable-background:new 0 0 2048 2048;" xml:space="preserve">
<style type="text/css">
	.st0{fill:#8CE9E3;}
	.st1{fill:#F55177;}
	.st2{fill:#F79B1D;}
	.st3{fill:#FDBF0E;}
	.st4{fill:#8C0926;}
	.st5{fill:#009BA2;}
	.st6{fill:#F03863;}
	.st7{opacity:0.6;}
	.st8{fill:#FDBA0E;}
	.st9{fill:#FFCC88;}
	.st10{fill:#C68734;}
</style>
<g>
	<polygon class="st0" points="669.99,760.62 697.81,787.31 735,777.12 718.22,811.83 739.4,844.05 701.2,838.82 677.1,868.91 
		670.27,830.97 634.21,817.35 668.18,799.13 	"/>
	<polygon class="st1" points="604.25,761.19 611.39,800.98 649.19,815.27 613.56,834.35 611.65,874.73 582.49,846.74 543.5,857.39 
		561.11,821.01 538.93,787.22 578.97,792.73 	"/>
	<polygon class="st2" points="937.54,785.29 959.77,829.11 1008.79,832.52 973.99,867.2 985.89,914.88 942.14,892.5 900.48,918.55 
		908.25,870.03 870.6,838.46 919.14,830.85 	"/>
	<polygon class="st3" points="1295.77,829.25 1302.73,855.19 1328.56,862.53 1306.04,877.16 1307.04,904 1286.17,887.11 
		1260.95,896.35 1270.57,871.28 1253.99,850.15 1280.81,851.55 	"/>
	<polygon class="st3" points="1589.54,783.38 1615.66,815.45 1656.59,809.48 1634.17,844.24 1652.49,881.31 1612.51,870.73 
		1582.9,899.61 1580.61,858.32 1544,839.09 1582.56,824.15 	"/>
	<polygon class="st2" points="1381.52,920.49 1385.65,955.64 1417.94,970.14 1385.78,984.93 1381.98,1020.12 1357.97,994.11 
		1323.33,1001.37 1340.65,970.5 1323.04,939.79 1357.75,946.72 	"/>
	<polygon class="st3" points="1027.16,296.11 1031.94,307.91 1044.52,309.86 1034.78,318.05 1036.81,330.61 1026.01,323.88 
		1014.69,329.7 1017.75,317.35 1008.72,308.38 1021.42,307.47 	"/>
	<polygon class="st2" points="918.39,561.91 923.01,578.15 939.33,582.52 925.31,591.93 926.19,608.79 912.91,598.37 897.14,604.43 
		902.95,588.57 892.32,575.45 909.2,576.07 	"/>
	<polygon class="st0" points="1135.97,556.62 1140.59,572.86 1156.9,577.23 1142.89,586.65 1143.77,603.51 1130.49,593.09 
		1114.72,599.14 1120.53,583.29 1109.9,570.16 1126.77,570.79 	"/>
	<polygon class="st0" points="985.18,558.47 993.91,577.61 1014.81,579.93 999.31,594.15 1003.56,614.75 985.25,604.41 
		966.97,614.81 971.15,594.2 955.61,580.03 976.5,577.63 	"/>
	<polygon class="st2" points="791.98,1026.91 805.12,1041.05 824,1037.04 814.61,1053.91 824.27,1070.62 805.32,1066.9 
		792.41,1081.25 790.09,1062.09 772.45,1054.24 789.97,1046.11 	"/>
	<polygon class="st1" points="1076.05,1022.83 1082.33,1066.01 1122.61,1082.78 1083.48,1102.1 1079.97,1145.59 1049.51,1114.35 
		1007.06,1124.45 1027.37,1085.83 1004.64,1048.58 1047.65,1055.95 	"/>
	<polygon class="st1" points="1453.61,1008.09 1464.36,1026.67 1485.83,1026.99 1471.48,1042.96 1477.82,1063.47 1458.2,1054.76 
		1440.65,1067.12 1442.87,1045.77 1425.68,1032.9 1446.68,1028.41 	"/>
	<polygon class="st0" points="1522.21,800.45 1537.62,851.82 1589.62,864.96 1545.53,895.49 1549.1,949.01 1506.43,916.51 
		1456.64,936.44 1474.37,885.82 1440.02,844.63 1493.64,845.84 	"/>
	<polygon class="st4" points="1036.05,334.11 1039.18,361.63 1064.41,373.06 1039.21,384.55 1036.13,412.08 1017.42,391.66 
		990.29,397.23 1003.93,373.13 990.24,349.05 1017.38,354.57 	"/>
	<polygon class="st3" points="1014.9,602.62 1067.61,606.97 1098.4,563.97 1110.55,615.44 1160.96,631.43 1115.76,658.9 
		1116.13,711.78 1076.04,677.28 1025.86,693.97 1046.28,645.19 	"/>
	<polygon class="st3" points="922.55,936.39 936.83,958.55 963.18,957.67 946.51,978.1 955.49,1002.88 930.92,993.35 
		910.12,1009.54 911.59,983.23 889.76,968.45 915.25,961.72 	"/>
	<polygon class="st4" points="846.96,734.1 861.24,756.25 887.59,755.38 870.93,775.8 879.9,800.59 855.33,791.05 834.53,807.25 
		836,780.93 814.17,766.16 839.66,759.42 	"/>
	<polygon class="st0" points="1078.92,847.97 1084.65,901.34 1133.4,923.82 1084.41,945.77 1078.1,999.07 1042.09,959.26 
		989.44,969.73 1016.18,923.18 989.95,876.35 1042.48,887.39 	"/>
	<polygon class="st2" points="660.6,900.41 676.41,941.92 720.15,949.67 685.55,977.53 691.7,1021.53 654.51,997.23 614.57,1016.68 
		626.18,973.8 595.35,941.82 639.72,939.62 	"/>
	<polygon class="st5" points="954.94,1192.13 961.91,1216.51 986.41,1223.04 965.38,1237.2 966.73,1262.51 946.77,1246.89 
		923.11,1256 931.8,1232.19 915.82,1212.5 941.16,1213.41 	"/>
	<polygon class="st0" points="1289.96,1226.14 1294.79,1263.85 1329.63,1279.07 1295.25,1295.31 1291.55,1333.15 1265.48,1305.48 
		1228.34,1313.64 1246.61,1280.3 1227.37,1247.51 1264.72,1254.57 	"/>
	<polygon class="st1" points="1067.01,482.92 1075.64,525.06 1116.23,539.28 1078.82,560.51 1077.84,603.51 1046.09,574.5 
		1004.89,586.85 1022.68,547.69 998.2,512.32 1040.94,517.13 	"/>
	<polygon class="st4" points="1370.1,827 1384.79,888.63 1445.22,907.66 1391.15,940.67 1391.73,1004.02 1343.62,962.8 
		1283.55,982.92 1307.89,924.43 1270.18,873.52 1333.33,878.59 	"/>
	<polygon class="st1" points="1305.89,937.26 1308.57,949.23 1320.3,953.14 1309.65,959.32 1309.57,971.58 1300.31,963.42 
		1288.52,967.09 1293.45,955.87 1286.25,945.87 1298.56,947.1 	"/>
	<polygon class="st0" points="1210.41,695.19 1218.75,733.16 1255.61,745.49 1222.08,765.15 1221.75,804.02 1192.68,778.21 
		1155.61,789.9 1171.18,754.29 1148.6,722.64 1187.29,726.44 	"/>
	<polygon class="st4" points="977.75,585.35 991.97,612.75 1022.78,614.62 1001.11,636.61 1008.86,666.49 981.25,652.68 
		955.23,669.28 959.83,638.76 936,619.13 966.45,614.08 	"/>
	<polygon class="st2" points="1193.61,1121.79 1218.85,1157.24 1262.23,1153.77 1236.32,1188.73 1253.02,1228.92 1211.76,1215.07 
		1178.71,1243.38 1179.12,1199.86 1141.99,1177.17 1183.5,1164.12 	"/>
	<polygon class="st0" points="991.38,1013.79 998.33,1022.84 1009.66,1021.52 1003.2,1030.93 1007.96,1041.31 997.01,1038.07 
		988.61,1045.8 988.31,1034.39 978.37,1028.79 989.13,1024.98 	"/>
	<polygon class="st6" points="1107.9,1174.35 1123.24,1224.76 1174.38,1237.48 1131.17,1267.64 1134.88,1320.2 1092.84,1288.43 
		1044,1308.21 1061.22,1258.41 1027.32,1218.06 1080.01,1219.06 	"/>
	<polygon class="st6" points="874.88,969.59 899.09,1015.73 951.11,1018.64 914.71,1055.92 928.02,1106.3 881.31,1083.2 
		837.51,1111.43 845.05,1059.87 804.67,1026.93 856.04,1018.17 	"/>
	<polygon class="st6" points="1420.51,1564.93 1431.21,1576.47 1446.62,1573.21 1438.95,1586.96 1446.81,1600.61 1431.36,1597.56 
		1420.81,1609.25 1418.94,1593.62 1404.56,1587.2 1418.85,1580.59 	"/>
	<polygon class="st2" points="1020.87,934.75 1033.19,960.28 1061.42,962.82 1040.94,982.42 1047.26,1010.06 1022.28,996.64 
		997.95,1011.18 1003,983.29 981.65,964.64 1009.74,960.82 	"/>
	<polygon class="st0" points="1265.89,1100.89 1277.45,1117.83 1297.92,1116.61 1285.38,1132.84 1292.87,1151.93 1273.56,1145.02 
		1257.72,1158.04 1258.33,1137.54 1241.05,1126.5 1260.73,1120.74 	"/>
	<polygon class="st3" points="849.65,788.73 857.4,829.73 896.56,844.13 859.96,864.16 858.36,905.86 828,877.24 787.85,888.6 
		805.69,850.88 782.47,816.22 823.86,821.52 	"/>
	<polygon class="st6" points="1179.04,767.94 1186.02,800.64 1217.66,811.43 1188.72,828.17 1188.23,861.6 1163.37,839.25 
		1131.43,849.11 1145,818.56 1125.75,791.23 1159,794.7 	"/>
	<polygon class="st1" points="1497.25,789.44 1509.85,789.75 1516.58,779.1 1520.18,791.18 1532.39,794.29 1522.02,801.44 
		1522.83,814.02 1512.82,806.36 1501.11,811.02 1505.3,799.13 	"/>
	<polygon class="st4" points="806.94,1200.06 825.24,1221.6 853.12,1216.95 838.29,1241.01 851.32,1266.09 823.86,1259.42 
		804.04,1279.57 801.89,1251.38 776.61,1238.76 802.74,1228.01 	"/>
	<polygon class="st3" points="743.77,1362.83 747.78,1392.07 774.93,1403.63 748.37,1416.48 745.76,1445.87 725.33,1424.58 
		696.57,1431.18 710.51,1405.17 695.34,1379.86 724.39,1385.08 	"/>
	<polygon class="st0" points="681.75,1316.39 696.96,1342.39 727.09,1342.68 707.06,1365.19 716.09,1393.93 688.5,1381.83 
		663.95,1399.31 666.93,1369.33 642.73,1351.38 672.16,1344.95 	"/>
	<polygon class="st1" points="1251.54,1388.54 1258.23,1397.64 1269.48,1396.57 1262.89,1405.75 1267.39,1416.12 1256.62,1412.69 
		1248.15,1420.17 1248.09,1408.87 1238.36,1403.12 1249.08,1399.57 	"/>
	<polygon class="st5" points="568.32,980.9 577.34,994.99 594.06,994.48 583.45,1007.42 589.1,1023.16 573.52,1017.07 
		560.28,1027.31 561.27,1010.6 547.44,1001.18 563.63,996.96 	"/>
	<polygon class="st3" points="1128.32,1135.26 1139.08,1148.2 1155.71,1145.6 1146.73,1159.84 1154.34,1174.85 1138.03,1170.71 
		1126.1,1182.59 1125,1165.79 1110.02,1158.12 1125.65,1151.88 	"/>
	<polygon class="st3" points="683.84,1000.2 700.18,1029.16 733.42,1030 710.93,1054.48 720.4,1086.36 690.16,1072.53 
		662.78,1091.39 666.58,1058.36 640.18,1038.15 672.77,1031.55 	"/>
	<polygon class="st1" points="988.42,1032.14 992.76,1053.44 1013.27,1060.64 994.35,1071.35 993.83,1093.08 977.8,1078.41 
		956.98,1084.63 965.98,1064.85 953.63,1046.96 975.23,1049.41 	"/>
	<polygon class="st5" points="988.42,419.9 992.76,441.2 1013.27,448.4 994.35,459.11 993.83,480.84 977.8,466.16 956.98,472.39 
		965.98,452.6 953.63,434.72 975.23,437.17 	"/>
	<polygon class="st1" points="1244.34,1004.3 1258.14,1023.31 1281.55,1021.23 1267.73,1040.23 1276.95,1061.85 1254.6,1054.58 
		1236.9,1070.03 1236.9,1046.53 1216.74,1034.46 1239.09,1027.21 	"/>
	<polygon class="st0" points="1043.35,392.8 1063.94,425.43 1102.5,424.51 1077.83,454.17 1090.63,490.56 1054.8,476.27 
		1024.14,499.68 1026.66,461.19 994.92,439.26 1032.31,429.77 	"/>
	<polygon class="st3" points="964.16,488.66 970.94,511.92 994.38,518.03 974.36,531.67 975.79,555.85 956.63,541.03 934.08,549.86 
		942.26,527.06 926.89,508.33 951.1,509.07 	"/>
	<polygon class="st3" points="1070.28,756.73 1072.23,796.65 1107.5,815.46 1070.13,829.66 1063.13,869.01 1038.09,837.86 
		998.5,843.37 1020.38,809.92 1002.91,773.97 1041.48,784.45 	"/>
	<polygon class="st4" points="1678.16,787.55 1684.35,806.31 1703.63,810.63 1687.7,822.32 1689.56,841.99 1673.52,830.45 
		1655.38,838.29 1661.4,819.47 1648.34,804.65 1668.09,804.55 	"/>
	<polygon class="st3" points="748.29,1480.84 755.62,1491.91 768.89,1491.31 760.62,1501.7 765.29,1514.13 752.85,1509.48 
		742.47,1517.77 743.05,1504.5 731.97,1497.19 744.76,1493.64 	"/>
	<polygon class="st0" points="822.37,1228.52 827.18,1271.23 866.29,1289.03 827.16,1306.79 822.32,1349.49 793.33,1317.76 
		751.23,1326.35 772.44,1288.98 751.26,1251.59 793.36,1260.22 	"/>
	<polygon class="st3" points="1198.89,1285.26 1207.74,1300.05 1224.98,1300.05 1213.65,1313.04 1218.98,1329.44 1203.12,1322.67 
		1189.17,1332.81 1190.71,1315.63 1176.76,1305.5 1193.57,1301.66 	"/>
	<polygon class="st3" points="887.74,1082.95 906.9,1152.51 976.43,1171.77 916.2,1211.48 919.36,1283.56 862.98,1238.55 
		795.41,1263.83 820.79,1196.3 775.86,1139.85 847.94,1143.12 	"/>
	<polygon class="st4" points="718.09,825.56 724.63,836.81 737.64,836.97 728.96,846.66 732.83,859.09 720.93,853.83 710.31,861.35 
		711.63,848.41 701.2,840.63 713.92,837.89 	"/>
	<polygon class="st6" points="683.58,897.62 690.12,908.86 703.13,909.02 694.45,918.72 698.32,931.14 686.42,925.89 675.8,933.41 
		677.12,920.46 666.68,912.69 679.4,909.94 	"/>
	<polygon class="st5" points="617.71,1536.18 626.37,1551.07 643.6,1551.28 632.11,1564.12 637.23,1580.57 621.47,1573.61 
		607.41,1583.57 609.16,1566.43 595.35,1556.13 612.18,1552.5 	"/>
	<polygon class="st2" points="1180.38,738.21 1186.13,749.19 1198.51,749.89 1189.84,758.76 1193,770.74 1181.9,765.24 
		1171.47,771.95 1173.27,759.69 1163.67,751.85 1175.89,749.77 	"/>
	<polygon class="st4" points="1162.96,636.41 1168.71,647.39 1181.09,648.09 1172.42,656.96 1175.58,668.94 1164.48,663.44 
		1154.05,670.15 1155.85,657.89 1146.25,650.05 1158.47,647.97 	"/>
	<polygon class="st2" points="949.26,743.75 955.02,754.73 967.39,755.43 958.73,764.3 961.89,776.28 950.78,770.78 940.36,777.49 
		942.16,765.23 932.55,757.39 944.77,755.31 	"/>
	<polygon class="st6" points="994.01,633.09 1027.75,682.19 1087.21,678.45 1050.93,725.71 1072.87,781.1 1016.71,761.2 
		970.8,799.18 972.38,739.63 922.07,707.71 979.2,690.8 	"/>
	<polygon class="st0" points="1275.92,764.02 1285.38,793.04 1315.14,799.82 1290.47,817.79 1293.22,848.19 1268.51,830.27 
		1240.44,842.28 1249.85,813.24 1229.75,790.27 1260.28,790.24 	"/>
	<polygon class="st2" points="1136.38,684.87 1145.84,713.9 1175.6,720.67 1150.93,738.64 1153.68,769.04 1128.97,751.12 
		1100.9,763.13 1110.31,734.09 1090.21,711.12 1120.74,711.09 	"/>
	<polygon class="st6" points="1376.17,758.4 1377.92,799.93 1414.46,819.73 1375.52,834.24 1367.97,875.11 1342.14,842.55 
		1300.94,848 1323.92,813.38 1306,775.87 1346.04,787.03 	"/>
	<polygon class="st5" points="764.13,770.67 782.51,791.44 809.77,786.33 795.69,810.23 808.98,834.58 781.9,828.57 762.85,848.73 
		760.19,821.12 735.14,809.23 760.57,798.18 	"/>
	<polygon class="st2" points="673.07,1408.25 705.93,1448.09 756.98,1440.35 729.25,1483.9 752.39,1530.07 702.39,1517.15 
		665.64,1553.43 662.48,1501.88 616.62,1478.14 664.66,1459.2 	"/>
	<polygon class="st4" points="959.82,1270.03 972.29,1312.1 1014.8,1323 978.64,1347.86 981.41,1391.65 946.59,1364.94 
		905.8,1381.11 920.44,1339.74 892.46,1305.94 936.32,1307.09 	"/>
	<polygon class="st0" points="1279.63,1430.04 1301.79,1453.02 1332.89,1445.79 1317.88,1473.97 1334.36,1501.31 1302.92,1495.75 
		1282.01,1519.87 1277.59,1488.25 1248.19,1475.82 1276.89,1461.84 	"/>
	<polygon class="st4" points="539.39,872.15 557.76,891.7 583.98,885.97 571.06,909.49 584.62,932.65 558.26,927.63 540.42,947.68 
		537.04,921.06 512.47,910.29 536.74,898.85 	"/>
	<polygon class="st1" points="871.86,898.48 877.99,913.73 894.22,916.3 881.61,926.84 884.18,943.08 870.26,934.34 855.61,941.8 
		859.62,925.86 848,914.24 864.4,913.12 	"/>
	<polygon class="st6" points="1191.36,859.24 1220.55,893.08 1264.57,885.4 1241.41,923.61 1262.32,963.11 1218.82,952.89 
		1187.72,984.98 1184,940.45 1143.87,920.79 1185.07,903.48 	"/>
	<polygon class="st5" points="1497.64,883.24 1521.98,915.77 1562.39,911.59 1538.97,944.78 1555.44,981.92 1516.63,969.91 
		1486.4,997.05 1485.83,956.43 1450.68,936.06 1489.14,922.97 	"/>
	<polygon class="st3" points="475.14,755.08 491.75,804.44 542.64,815.51 500.83,846.56 506.02,898.38 463.57,868.22 415.9,889.16 
		431.47,839.47 396.81,800.6 448.88,800.05 	"/>
	<polygon class="st1" points="786.06,1400.83 791.29,1420.81 811.12,1426.58 793.73,1437.73 794.38,1458.38 778.4,1445.29 
		758.96,1452.28 766.47,1433.04 753.82,1416.71 774.44,1417.91 	"/>
	<polygon class="st1" points="1035.68,1285.69 1042.11,1306.91 1063.62,1312.29 1045.42,1324.96 1046.95,1347.09 1029.28,1333.69 
		1008.71,1341.98 1015.99,1321.04 1001.75,1304.04 1023.92,1304.49 	"/>
	<polygon class="st2" points="1369.25,1454.73 1394.49,1488.62 1436.53,1484.34 1412.11,1518.82 1429.16,1557.48 1388.82,1544.9 
		1357.33,1573.07 1356.82,1530.82 1320.3,1509.57 1360.33,1496.03 	"/>
	<polygon class="st1" points="878.01,614.01 906.12,643.76 946.09,634.9 926.49,670.83 947.26,706.1 907.03,698.57 879.91,729.23 
		874.64,688.63 837.1,672.31 874.09,654.76 	"/>
	<polygon class="st0" points="726.58,1056.19 755.69,1104.08 811.73,1103.67 775.19,1146.16 792.89,1199.33 741.19,1177.7 
		696.09,1210.97 700.68,1155.12 655.11,1122.5 709.65,1109.61 	"/>
	<polygon class="st2" points="1003.95,1109.12 1028.26,1133.86 1061.98,1125.69 1045.97,1156.46 1064.16,1185.99 1029.94,1180.28 
		1007.47,1206.7 1002.34,1172.4 970.26,1159.19 1001.3,1143.71 	"/>
	<polygon class="st5" points="1329.83,1085 1350.3,1113.05 1384.88,1109.88 1364.52,1138.02 1378.22,1169.93 1345.18,1159.27 
		1319.06,1182.16 1318.99,1147.43 1289.15,1129.67 1322.15,1118.87 	"/>
	<polygon class="st2" points="364.52,790.16 377.6,803.8 396.02,799.57 387.1,816.23 396.81,832.44 378.21,829.1 365.79,843.35 
		363.22,824.63 345.83,817.22 362.84,808.99 	"/>
	<polygon class="st0" points="509.85,902.41 522.34,923.71 547.03,923.92 530.63,942.38 538.05,965.93 515.43,956.04 495.33,970.37 
		497.75,945.8 477.9,931.12 502.02,925.82 	"/>
	<polygon class="st2" points="949.36,1040.51 950.54,1053.85 962.6,1059.68 950.27,1064.93 948.45,1078.2 939.65,1068.1 
		926.47,1070.47 933.35,1058.98 927.03,1047.17 940.08,1050.17 	"/>
	<polygon class="st0" points="1354.35,995.02 1365.18,1037.54 1407.22,1050.06 1370.14,1073.5 1371.21,1117.36 1337.46,1089.33 
		1296.09,1103.91 1312.31,1063.15 1285.66,1028.3 1329.44,1031.14 	"/>
	<polygon class="st4" points="1123.73,850.4 1125.69,869.14 1142.77,877.08 1125.56,884.72 1123.29,903.43 1110.69,889.42 
		1092.21,893.04 1101.64,876.73 1092.48,860.26 1110.91,864.19 	"/>
	<polygon class="st5" points="879.3,1333.75 888.73,1383.17 935.98,1400.44 891.9,1424.68 890.08,1474.95 853.4,1440.52 
		805.02,1454.32 826.44,1408.8 798.36,1367.05 848.27,1373.35 	"/>
	<polygon class="st3" points="1183.96,1325.3 1213.87,1368.49 1266.29,1365 1234.45,1406.79 1253.98,1455.57 1204.39,1438.2 
		1164.03,1471.85 1165.22,1419.32 1120.76,1391.33 1171.08,1376.24 	"/>
	<polygon class="st1" points="1454.99,760.67 1460.52,786.64 1485.64,795.24 1462.65,808.52 1462.24,835.07 1442.5,817.3 
		1417.12,825.12 1427.92,800.86 1412.65,779.14 1439.06,781.91 	"/>
	<polygon class="st3" points="1340.63,1245.11 1355.88,1287.2 1399.83,1295.72 1364.51,1323.23 1369.99,1367.66 1332.91,1342.57 
		1292.35,1361.52 1304.75,1318.5 1274.2,1285.78 1318.94,1284.28 	"/>
	<polygon class="st1" points="993.38,786.42 999.92,805.95 1020.04,810.36 1003.49,822.62 1005.51,843.12 988.74,831.16 
		969.86,839.42 976.05,819.77 962.37,804.38 982.97,804.19 	"/>
	<polygon class="st1" points="697.77,1243.22 716.12,1261.43 741.17,1255.02 729.53,1278.1 743.36,1299.95 717.81,1296.01 
		701.31,1315.91 697.16,1290.39 673.13,1280.85 696.12,1269.02 	"/>
	<polygon class="st4" points="1133.85,1264.33 1139.43,1282.34 1157.75,1286.8 1142.35,1297.67 1143.77,1316.48 1128.67,1305.19 
		1111.23,1312.35 1117.3,1294.5 1105.09,1280.13 1123.95,1280.38 	"/>
	<polygon class="st6" points="1107.51,1341.59 1113.1,1359.6 1131.42,1364.06 1116.02,1374.93 1117.44,1393.74 1102.34,1382.45 
		1084.89,1389.61 1090.97,1371.76 1078.76,1357.38 1097.62,1357.64 	"/>
	<polygon class="st0" points="1133.23,922.41 1180.37,987.35 1260.3,980.23 1213.1,1045.13 1244.57,1118.95 1168.27,1094.12 
		1107.79,1146.86 1107.82,1066.61 1038.97,1025.39 1115.3,1000.63 	"/>
	<polygon class="st4" points="1285.18,1315.2 1325.88,1353.67 1379.78,1338.49 1355.77,1389.08 1386.86,1435.66 1331.32,1428.45 
		1296.64,1472.41 1286.33,1417.37 1233.8,1397.97 1282.96,1371.15 	"/>
	<polygon class="st5" points="754.43,832.2 796.68,891 868.83,884.92 825.97,943.27 854.05,1010.01 785.31,987.28 730.51,1034.61 
		730.89,962.21 668.94,924.72 737.92,902.7 	"/>
</g>
<g class="st7">
	<polygon class="st8" points="223.44,1121.9 232.11,1136.79 249.33,1137 237.84,1149.84 242.97,1166.29 227.21,1159.33 
		213.15,1169.28 214.89,1152.15 201.08,1141.85 217.92,1138.22 	"/>
	<polygon class="st8" points="395.05,334.11 403.71,349 420.93,349.21 409.45,362.05 414.57,378.5 398.81,371.54 384.75,381.5 
		386.5,364.36 372.69,354.06 389.52,350.43 	"/>
	<polygon class="st9" points="537.17,396.2 545.83,411.09 563.05,411.31 551.57,424.14 556.69,440.59 540.93,433.64 526.87,443.59 
		528.62,426.45 514.81,416.16 531.64,412.52 	"/>
	<polygon class="st8" points="1368.73,248.73 1377.39,263.62 1394.62,263.83 1383.13,276.67 1388.25,293.12 1372.49,286.16 
		1358.43,296.11 1360.18,278.97 1346.37,268.68 1363.21,265.04 	"/>
	<polygon class="st8" points="1598.53,603.62 1607.19,618.52 1624.42,618.73 1612.93,631.57 1618.05,648.01 1602.29,641.06 
		1588.23,651.01 1589.98,633.87 1576.17,623.58 1593.01,619.94 	"/>
	<polygon class="st9" points="1840.38,426.68 1849.04,441.57 1866.27,441.78 1854.78,454.62 1859.9,471.07 1844.14,464.11 
		1830.08,474.06 1831.83,456.92 1818.02,446.63 1834.86,442.99 	"/>
	<polygon class="st8" points="1840.38,1135.23 1849.04,1150.12 1866.27,1150.33 1854.78,1163.17 1859.9,1179.62 1844.14,1172.66 
		1830.08,1182.62 1831.83,1165.48 1818.02,1155.18 1834.86,1151.55 	"/>
	<polygon class="st8" points="1816.26,1708 1824.92,1722.89 1842.14,1723.11 1830.66,1735.94 1835.78,1752.39 1820.02,1745.43 
		1805.96,1755.39 1807.7,1738.25 1793.89,1727.95 1810.73,1724.32 	"/>
	<polygon class="st10" points="1768.01,1575.73 1776.67,1590.62 1793.89,1590.83 1782.41,1603.67 1787.53,1620.12 1771.77,1613.16 
		1757.71,1623.12 1759.46,1605.98 1745.64,1595.68 1762.48,1592.05 	"/>
	<polygon class="st9" points="1011.82,1773.48 1020.48,1788.37 1037.71,1788.58 1026.22,1801.42 1031.34,1817.87 1015.58,1810.91 
		1001.52,1820.86 1003.27,1803.73 989.46,1793.43 1006.3,1789.79 	"/>
	<polygon class="st8" points="295.82,1755.39 304.48,1770.28 321.7,1770.49 310.22,1783.33 315.34,1799.78 299.58,1792.82 
		285.52,1802.78 287.27,1785.64 273.46,1775.34 290.29,1771.71 	"/>
	<polygon class="st10" points="987.68,1599.42 996.34,1614.32 1013.57,1614.53 1002.08,1627.37 1007.2,1643.81 991.44,1636.86 
		977.38,1646.81 979.13,1629.67 965.32,1619.38 982.16,1615.74 	"/>
	<polygon class="st8" points="873.72,1689.91 882.38,1704.81 899.61,1705.02 888.12,1717.86 893.24,1734.3 877.49,1727.35 
		863.43,1737.3 865.17,1720.16 851.36,1709.87 868.2,1706.23 	"/>
	<polygon class="st10" points="271.69,1238.82 280.35,1253.71 297.58,1253.92 286.09,1266.76 291.22,1283.21 275.46,1276.25 
		261.4,1286.21 263.14,1269.07 249.33,1258.77 266.17,1255.14 	"/>
	<polygon class="st8" points="271.69,603.62 280.35,618.52 297.58,618.73 286.09,631.57 291.22,648.01 275.46,641.06 261.4,651.01 
		263.14,633.87 249.33,623.58 266.17,619.94 	"/>
	<polygon class="st8" points="683.14,609.39 691.81,624.29 709.03,624.5 697.54,637.33 702.67,653.78 686.91,646.83 672.85,656.78 
		674.59,639.64 660.78,629.35 677.62,625.71 	"/>
	<polygon class="st10" points="1674.22,388.38 1682.88,403.27 1700.11,403.49 1688.62,416.32 1693.74,432.77 1677.98,425.82 
		1663.92,435.77 1665.67,418.63 1651.86,408.34 1668.7,404.7 	"/>
</g>
</svg>
